<svg xmlns="http://www.w3.org/2000/svg" width="3000" height="500">
  <g transform="translate(350, 150)">
    <line x1="0" x2="2300" y1="0" y2="0" style="stroke: rgb(255, 255, 255); stroke-width: 3;"/>
    <g>
      <circle class="dot" r="5" fill="#ffffff" cx="2250" cy="0"/>
      <circle class="dot" r="5" fill="#ffffff" cx="2194.2896033186416" cy="0"/>
      <circle class="dot" r="5" fill="#ffffff" cx="0" cy="0"/>
      <circle class="dot" r="5" fill="#ffffff" cx="675.8166969147006" cy="0"/>
      <circle class="dot" r="5" fill="#ffffff" cx="1187.1273010111483" cy="0"/>
      <circle class="dot" r="5" fill="#ffffff" cx="1290.9644801659322" cy="0"/>
      <circle class="click-area" r="30" fill="transparent" pointer-events="all" cx="2250" cy="0"/>
      <circle class="click-area" r="30" fill="transparent" pointer-events="all" cx="2194.2896033186416" cy="0"/>
      <circle class="click-area" r="30" fill="transparent" pointer-events="all" cx="0" cy="0"/>
      <circle class="click-area" r="30" fill="transparent" pointer-events="all" cx="675.8166969147006" cy="0"/>
      <circle class="click-area" r="30" fill="transparent" pointer-events="all" cx="1187.1273010111483" cy="0"/>
      <circle class="click-area" r="30" fill="transparent" pointer-events="all" cx="1290.9644801659322" cy="0"/>
      <text class="year-label" x="2250" y="-10" text-anchor="middle" style="fill: rgb(255, 255, 255);"/>
      <text class="year-label" x="2194.2896033186416" y="-10" text-anchor="middle" style="fill: rgb(255, 255, 255);"/>
      <text class="year-label" x="0" y="-10" text-anchor="middle" style="fill: rgb(255, 255, 255);"/>
      <text class="year-label" x="675.8166969147006" y="-10" text-anchor="middle" style="fill: rgb(255, 255, 255);"/>
      <text class="year-label" x="1187.1273010111483" y="-10" text-anchor="middle" style="fill: rgb(255, 255, 255);"/>
      <text class="year-label" x="1290.9644801659322" y="-10" text-anchor="middle" style="fill: rgb(255, 255, 255);"/>
    </g>
    <g>
      <path d="M 2250 0 C 2250 35 2260 35 2260 70" style="stroke: rgba(255, 255, 255, 0.333); stroke-width: 2; fill: none;"/>
      <path d="M 2194.2896033186416 0 C 2194.2896033186416 35 1980 35 1980 70" style="stroke: rgba(255, 255, 255, 0.333); stroke-width: 2; fill: none;"/>
      <path d="M 0 0 C 0 35 30 35 30 70" style="stroke: rgba(255, 255, 255, 0.333); stroke-width: 2; fill: none;"/>
      <path d="M 675.8166969147006 0 C 675.8166969147006 35 676 35 676 70" style="stroke: rgba(255, 255, 255, 0.333); stroke-width: 2; fill: none;"/>
      <path d="M 1187.1273010111483 0 C 1187.1273010111483 35 1099 35 1099 70" style="stroke: rgba(255, 255, 255, 0.333); stroke-width: 2; fill: none;"/>
      <path d="M 1290.9644801659322 0 C 1290.9644801659322 35 1379 35 1379 70" style="stroke: rgba(255, 255, 255, 0.333); stroke-width: 2; fill: none;"/>
    </g>
    <g>
      <g transform="translate(2220, 70)">
        <text style="font-size: 18px; font-family: Pretendard; fill: rgb(255, 255, 255);">fff</text>
        <rect x="0" y="33" width="38.1953125" height="26.5" style="fill: rgb(255, 255, 255); rx: 4; ry: 4;"/>
        <text x="10" y="50" style="font-size: 18px; font-family: Pretendard; fill: rgb(0, 0, 0);">fff</text>
        <text x="10" y="25" class="first-line" style="fill: rgb(255, 255, 255); font-size: 25px; font-family: YUniverse-B; font-weight: bold;">2024-12-09</text>
      </g>
      <g transform="translate(1940, 70)">
        <text style="font-size: 18px; font-family: Pretendard; fill: rgb(255, 255, 255);">ddd</text>
        <rect x="0" y="33" width="51.90625" height="26.5" style="fill: rgb(255, 255, 255); rx: 4; ry: 4;"/>
        <text x="10" y="50" style="font-size: 18px; font-family: Pretendard; fill: rgb(0, 0, 0);">ddd</text>
        <text x="10" y="25" class="first-line" style="fill: rgb(255, 255, 255); font-size: 25px; font-family: YUniverse-B; font-weight: bold;">2024 여름</text>
      </g>
      <g transform="translate(-10, 70)">
        <text style="font-size: 18px; font-family: Pretendard; fill: rgb(255, 255, 255);">태어나다</text>
        <rect x="0" y="33" width="82.2265625" height="26.5" style="fill: rgb(255, 255, 255); rx: 4; ry: 4;"/>
        <text x="10" y="50" style="font-size: 18px; font-family: Pretendard; fill: rgb(0, 0, 0);">태어나다</text>
        <text x="10" y="25" class="first-line" style="fill: rgb(255, 255, 255); font-size: 25px; font-family: YUniverse-B; font-weight: bold;">2003-10-27</text>
      </g>
      <g transform="translate(636, 70)">
        <text style="font-size: 18px; font-family: Pretendard; fill: rgb(255, 255, 255);">학교감</text>
        <rect x="0" y="33" width="66.671875" height="26.5" style="fill: rgb(255, 255, 255); rx: 4; ry: 4;"/>
        <text x="10" y="50" style="font-size: 18px; font-family: Pretendard; fill: rgb(0, 0, 0);">학교감</text>
        <text x="10" y="25" class="first-line" style="fill: rgb(255, 255, 255); font-size: 25px; font-family: YUniverse-B; font-weight: bold;">2010 봄</text>
      </g>
      <g transform="translate(1059, 70)">
        <text style="font-size: 18px; font-family: Pretendard; fill: rgb(255, 255, 255);">얍얍</text>
        <rect x="0" y="33" width="51.1171875" height="26.5" style="fill: rgb(255, 255, 255); rx: 4; ry: 4;"/>
        <text x="10" y="50" style="font-size: 18px; font-family: Pretendard; fill: rgb(0, 0, 0);">얍얍</text>
        <text x="10" y="25" class="first-line" style="fill: rgb(255, 255, 255); font-size: 25px; font-family: YUniverse-B; font-weight: bold;">2014-12-18</text>
      </g>
      <g transform="translate(1339, 70)">
        <text style="font-size: 18px; font-family: Pretendard; fill: rgb(255, 255, 255);">굴러다녀요</text>
        <rect x="0" y="33" width="97.7890625" height="26.5" style="fill: rgb(255, 255, 255); rx: 4; ry: 4;"/>
        <text x="10" y="50" style="font-size: 18px; font-family: Pretendard; fill: rgb(0, 0, 0);">굴러다녀요</text>
        <text x="10" y="25" class="first-line" style="fill: rgb(255, 255, 255); font-size: 25px; font-family: YUniverse-B; font-weight: bold;">2015-12-09</text>
      </g>
    </g>
  </g>
</svg>